Jackie Brown (1997)

Director: Quentin Tarantino

Jackie Brown is a 1997 American crime film written and directed by Quentin Tarantino. It is an adaptation of the novel Rum Punch by American novelist Elmore Leonard and pays homage to 1970's blaxploitation films. The film stars Pam Grier, Robert Forster, Robert De Niro, Samuel L. Jackson, Bridget Fonda and Michael Keaton. It was Tarantino's third film following his successes with Reservoir Dogs (1992) and Pulp Fiction (1994).

Grier and Forster were both veteran actors but neither had performed a leading role in many years. Jackie Brown revitalized both actors' careers. The film garnered Forster an Academy Award nomination for Best Supporting Actor, and Jackson and Grier were nominated for Golden Globe Awards.

Tarantino changed the race of the main character of Leonard's novel from white to black. Pam Grier was cast partly due to her involvement with the blaxploitation genre, in which she had made several films, such as Black Mama, White Mama. Jackie Brown alludes to Grier's career in many ways. The film's poster resembles those of Grier's films Coffy and Foxy Brown and includes quotes from both films. The typeface for the film's opening titles was also used for those of Foxy Brown; some of the background music is lifted from these films.

The film's opening sequence is similar to that of The Graduate, in which Dustin Hoffman passes wearily through LAX past white tiles to a somber folk music soundtrack. In Jackie Brown, Grier walks past the same spot to a soaring soul music song, Across 110th Street by Bobby Womack, which is from the film of the same name that was a part of the same basic blaxploitation genre as that of Foxy Brown and Coffy.

Media Info:
General
Complete name                    : J:\Seeding\Jackie Brown (1997)[DVDRip][big_dad_eâ„¢]\Jackie Brown (1997)[DVDRip][big_dad_eâ„¢].avi
Format                           : AVI
Format/Info                      : Audio Video Interleave
Format profile                   : OpenDML
File size                        : 3.16 GiB
Duration                         : 2h 34mn
Overall bit rate                 : 2 931 Kbps
Writing application              : Lavf51.12.1

Video
ID                               : 0
Format                           : MPEG-4 Visual
Format profile                   : Simple@L1
Format settings, BVOP            : No
Format settings, QPel            : No
Format settings, GMC             : No warppoints
Format settings, Matrix          : Default (H.263)
Codec ID                         : DX50
Codec ID/Hint                    : DivX 5
Duration                         : 2h 34mn
Bit rate                         : 2 600 Kbps
Width                            : 852 pixels
Height                           : 480 pixels
Display aspect ratio             : 16:9
Frame rate                       : 23.976 fps
Color space                      : YUV
Chroma subsampling               : 4:2:0
Bit depth                        : 8 bits
Scan type                        : Progressive
Bits/(Pixel*Frame)               : 0.265
Stream size                      : 2.80 GiB (89%)
Writing library                  : Lavc51.40.4

Audio
ID                               : 1
Format                           : MPEG Audio
Format version                   : Version 1
Format profile                   : Layer 3
Mode                             : Joint stereo
Codec ID                         : 55
Codec ID/Hint                    : MP3
Duration                         : 2h 34mn
Bit rate mode                    : Constant
Bit rate                         : 320 Kbps
Channel(s)                       : 2 channels
Sampling rate                    : 44.1 KHz
Stream size                      : 353 MiB (11%)
Alignment                        : Aligned on interleaves
Interleave, duration             : 26 ms (0.63 video frame)
Writing library                  : LAME3.97

File Scan:
Malwarebytes' Anti-Malware 1.46
www.malwarebytes.org

Database version: 5126

Windows 5.1.2600 Service Pack 3
Internet Explorer 8.0.6001.18702

11/16/2010 9:32:11 AM
mbam-log-2010-11-16 (09-32-11).txt

Scan type: Quick scan
Objects scanned: 6
Time elapsed: 18 second(s)

Memory Processes Infected: 0
Memory Modules Infected: 0
Registry Keys Infected: 0
Registry Values Infected: 0
Registry Data Items Infected: 0
Folders Infected: 0
Files Infected: 0

Memory Processes Infected:
(No malicious items detected)

Memory Modules Infected:
(No malicious items detected)

Registry Keys Infected:
(No malicious items detected)

Registry Values Infected:
(No malicious items detected)

Registry Data Items Infected:
(No malicious items detected)

Folders Infected:
(No malicious items detected)

Files Infected:
(No malicious items detected)

When using TPB please read these important notes:
  
01- Anti-malware apps may warn about keygens, patches, cracks, etc., because of 
    their capabilities, (generating codes, etc.). Sometimes they're added to 
    the virus/spyware database and will be detected as malware. If you don't trust
    the keygens, patches, cracks, etc., don't use them. 
    
02- Before running .exe-files, keygens, patches, cracks, etc., always check first 
    if they can be unpacked. Often some third party added a virus to the 
    original file, repacked it and uploaded it again.

03- Letting anti-malware apps send scan results to their companies can cause
    keygens, patches, cracks, etc., to be added to their virus-database.

04- Firewalls which are set to automatically determine connections will allow 
    apps & malware!. Avoid this by manually configuring your firewall.

05- Usually (new) torrents with many downloads and seeders in a brief period is
    suspicious! Torrents with the Skull & Crossbones icon are trusted.

06- Some people use multiple accounts and post fake comments 
    and/or files trying to spread confusion. They seldom seriously
    comment or have any torrents, or a just a few to look passable.

07- Clicking on unknown links can cause malware to be installed on your machine.
  
08- In general often there are more fake and negative comments than reliable and
    positive comments.

09- In some countries uploading/downloading copyright protected material is 
    forbidden, but showing some appreciation to reliable up-loaders is not.

10- Posting fake and negative comments or fake/infected uploads on TPB can result
    in getting banned from TPB!

Requests?  Find me on SuprBay.
 

For reporting bad or suspicious torrents: 
http://forum.suprbay.org/forumdisplay.php?fid=29

For more of my torrents:
https://thepiratebay.org/user/big_dad_e/  (Secured)

All torrents scanned with:
Norton Anti-virus
Malwarebytes' Anti-malware 
http://www.pirate-party.us/

ALWAYS SEED & THANKS SEEDERS!